<?xml version="1.0" encoding="iso-8859-1"?>
<!-- Generator: Adobe Illustrator 19.0.0, SVG Export Plug-In . SVG Version: 6.00 Build 0)  -->
<svg version="1.1" id="Capa_1" xmlns="http://www.w3.org/2000/svg" xmlns:xlink="http://www.w3.org/1999/xlink" x="0px" y="0px"
	 viewBox="0 0 490.05 490.05" style="enable-background:new 0 0 490.05 490.05;" xml:space="preserve">
<g>
	<path d="M483.825,454.725l-130.3-129.5l123-123.2c8.3-8.3,8.3-20.8,0-29.1c-29.1-28.1-66.4-43.7-105.9-43.7
		c-18.7,0-37.4,3.1-55,10.4l-132.9-133.3c-8.3-8.3-20.8-8.3-29.1,0l-147.4,146.7c-8.3,8.3-8.3,20.8,0,29.1l133.9,134.2
		c-21.8,55.1-8.5,116.7,33.2,160.2c7.9,8.2,23.4,7.8,29.1,0l122.5-122.8l129.8,130c8.3,8.3,20.8,8.3,29.1,0
		C492.125,475.525,492.125,463.125,483.825,454.725z M188.925,432.925c-21.8-33.3-24.9-74.9-6.2-111.3c3.1-8.3,2.1-17.7-4.2-23.9
		l-128.7-129l118.4-118.7l127.7,130c6.2,6.2,15.6,8.3,23.9,4.2c15.6-8.3,32.2-12.5,49.8-12.5c22.8,0,43.6,6.2,61.2,18.7
		L188.925,432.925z"/>
</g>
<g>
</g>
<g>
</g>
<g>
</g>
<g>
</g>
<g>
</g>
<g>
</g>
<g>
</g>
<g>
</g>
<g>
</g>
<g>
</g>
<g>
</g>
<g>
</g>
<g>
</g>
<g>
</g>
<g>
</g>
</svg>
